<svg width="434" height="466" viewBox="0 0 434 466" fill="none" xmlns="http://www.w3.org/2000/svg">
<rect width="434" height="360" rx="20" fill="#7F22FD"/>
<path d="M186.016 176.282H124.932V168.519H186.016V176.282ZM186.016 206.385H124.932V198.621H186.016V206.385ZM256.035 193.567V237H247.026V130.359H283.354C294.438 130.359 303.179 133.191 309.575 138.855C316.021 144.52 319.243 152.308 319.243 162.22C319.243 172.229 316.143 179.969 309.941 185.438C303.789 190.857 294.854 193.567 283.135 193.567H256.035ZM256.035 185.95H283.354C292.095 185.95 298.76 183.875 303.35 179.725C307.939 175.574 310.234 169.788 310.234 162.366C310.234 154.993 307.939 149.134 303.35 144.788C298.809 140.394 292.339 138.147 283.94 138.05H256.035V185.95Z" fill="white"/>
<path d="M186.016 176.282V178.782H188.516V176.282H186.016ZM124.932 176.282H122.432V178.782H124.932V176.282ZM124.932 168.519V166.019H122.432V168.519H124.932ZM186.016 168.519H188.516V166.019H186.016V168.519ZM186.016 206.385V208.885H188.516V206.385H186.016ZM124.932 206.385H122.432V208.885H124.932V206.385ZM124.932 198.621V196.121H122.432V198.621H124.932ZM186.016 198.621H188.516V196.121H186.016V198.621ZM186.016 173.782H124.932V178.782H186.016V173.782ZM127.432 176.282V168.519H122.432V176.282H127.432ZM124.932 171.019H186.016V166.019H124.932V171.019ZM183.516 168.519V176.282H188.516V168.519H183.516ZM186.016 203.885H124.932V208.885H186.016V203.885ZM127.432 206.385V198.621H122.432V206.385H127.432ZM124.932 201.121H186.016V196.121H124.932V201.121ZM183.516 198.621V206.385H188.516V198.621H183.516ZM256.035 193.567V191.067H253.535V193.567H256.035ZM256.035 237V239.5H258.535V237H256.035ZM247.026 237H244.526V239.5H247.026V237ZM247.026 130.359V127.859H244.526V130.359H247.026ZM309.575 138.855L307.918 140.727L307.925 140.733L309.575 138.855ZM309.941 185.438L311.594 187.313L311.595 187.313L309.941 185.438ZM256.035 185.95H253.535V188.45H256.035V185.95ZM303.35 144.788L301.611 146.585L301.621 146.594L301.631 146.603L303.35 144.788ZM283.94 138.05L283.969 135.55L283.955 135.55H283.94V138.05ZM256.035 138.05V135.55H253.535V138.05H256.035ZM253.535 193.567V237H258.535V193.567H253.535ZM256.035 234.5H247.026V239.5H256.035V234.5ZM249.526 237V130.359H244.526V237H249.526ZM247.026 132.859H283.354V127.859H247.026V132.859ZM283.354 132.859C294.014 132.859 302.101 135.576 307.918 140.727L311.233 136.984C304.257 130.807 294.863 127.859 283.354 127.859V132.859ZM307.925 140.733C313.744 145.847 316.743 152.903 316.743 162.22H321.743C321.743 151.712 318.297 143.192 311.225 136.978L307.925 140.733ZM316.743 162.22C316.743 171.677 313.839 178.667 308.288 183.562L311.595 187.313C318.447 181.27 321.743 172.782 321.743 162.22H316.743ZM308.289 183.562C302.755 188.436 294.503 191.067 283.135 191.067V196.067C295.204 196.067 304.823 193.279 311.594 187.313L308.289 183.562ZM283.135 191.067H256.035V196.067H283.135V191.067ZM256.035 188.45H283.354V183.45H256.035V188.45ZM283.354 188.45C292.46 188.45 299.818 186.289 305.026 181.579L301.673 177.87C297.702 181.461 291.73 183.45 283.354 183.45V188.45ZM305.026 181.579C310.244 176.861 312.734 170.341 312.734 162.366H307.734C307.734 169.235 305.635 174.288 301.673 177.87L305.026 181.579ZM312.734 162.366C312.734 154.431 310.241 147.87 305.068 142.973L301.631 146.603C305.638 150.398 307.734 155.555 307.734 162.366H312.734ZM305.088 142.992C299.954 138.023 292.791 135.653 283.969 135.55L283.911 140.55C291.887 140.642 297.664 142.764 301.611 146.585L305.088 142.992ZM283.94 135.55H256.035V140.55H283.94V135.55ZM253.535 138.05V185.95H258.535V138.05H253.535Z" fill="white"/>
<path d="M330.685 348.718C335.357 350.903 336.311 357.286 332.584 361.428L249.981 453.237C245.418 458.308 237.57 456.281 236.599 449.78L215.649 309.552C214.677 303.051 221.412 297.624 227.132 300.299L330.685 348.718Z" fill="#7F22FD"/>
</svg>
